<?xml version="1.0" encoding="UTF-8" standalone="no"?>
<!DOCTYPE svg PUBLIC "-//W3C//DTD SVG 1.1//EN"
 "http://www.w3.org/Graphics/SVG/1.1/DTD/svg11.dtd">
<!-- Generated by graphviz version 12.1.0 (20240811.2233)
 -->
<!-- Title: G Pages: 1 -->
<svg width="2620pt" height="321pt"
 viewBox="0.00 0.00 2619.68 321.20" xmlns="http://www.w3.org/2000/svg" xmlns:xlink="http://www.w3.org/1999/xlink">
<g id="graph0" class="graph" transform="scale(1 1) rotate(0) translate(21.6 299.6)">
<title>G</title>
<polygon fill="white" stroke="none" points="-21.6,21.6 -21.6,-299.6 2598.08,-299.6 2598.08,21.6 -21.6,21.6"/>
<g id="clust1" class="cluster">
<title>cluster_current</title>
<path fill="white" stroke="#0f766e" stroke-width="2" d="M20,-8C20,-8 1706.08,-8 1706.08,-8 1712.08,-8 1718.08,-14 1718.08,-20 1718.08,-20 1718.08,-258 1718.08,-258 1718.08,-264 1712.08,-270 1706.08,-270 1706.08,-270 20,-270 20,-270 14,-270 8,-264 8,-258 8,-258 8,-20 8,-20 8,-14 14,-8 20,-8"/>
<text text-anchor="middle" x="863.04" y="-252.7" font-family="Helvetica,sans-Serif" font-weight="bold" font-size="14.00">Current validated release</text>
</g>
<g id="clust2" class="cluster">
<title>cluster_planned</title>
<path fill="white" stroke="#94a3b8" stroke-width="2" stroke-dasharray="5,2" d="M1754.08,-167C1754.08,-167 2556.48,-167 2556.48,-167 2562.48,-167 2568.48,-173 2568.48,-179 2568.48,-179 2568.48,-244 2568.48,-244 2568.48,-250 2562.48,-256 2556.48,-256 2556.48,-256 1754.08,-256 1754.08,-256 1748.08,-256 1742.08,-250 1742.08,-244 1742.08,-244 1742.08,-179 1742.08,-179 1742.08,-173 1748.08,-167 1754.08,-167"/>
<text text-anchor="middle" x="2155.28" y="-238.7" font-family="Helvetica,sans-Serif" font-weight="bold" font-size="14.00">Future validation and tuning</text>
</g>
<!-- cfg -->
<g id="node1" class="node">
<title>cfg</title>
<path fill="#d1fae5" stroke="#0f766e" d="M119.53,-111C119.53,-111 28,-111 28,-111 22,-111 16,-105 16,-99 16,-99 16,-87 16,-87 16,-81 22,-75 28,-75 28,-75 119.53,-75 119.53,-75 125.53,-75 131.53,-81 131.53,-87 131.53,-87 131.53,-99 131.53,-99 131.53,-105 125.53,-111 119.53,-111"/>
<text text-anchor="middle" x="73.76" y="-87.97" font-family="Helvetica,sans-Serif" font-size="12.00">Input configuration</text>
</g>
<!-- expr -->
<g id="node2" class="node">
<title>expr</title>
<path fill="#d1fae5" stroke="#0f766e" d="M900.93,-53.51C900.93,-53.51 784.65,-53.51 784.65,-53.51 778.65,-53.51 772.65,-47.51 772.65,-41.51 772.65,-41.51 772.65,-28.49 772.65,-28.49 772.65,-22.49 778.65,-16.49 784.65,-16.49 784.65,-16.49 900.93,-16.49 900.93,-16.49 906.93,-16.49 912.93,-22.49 912.93,-28.49 912.93,-28.49 912.93,-41.51 912.93,-41.51 912.93,-47.51 906.93,-53.51 900.93,-53.51"/>
<text text-anchor="middle" x="842.79" y="-36.35" font-family="Helvetica,sans-Serif" font-size="12.00">Normalized expression</text>
<text text-anchor="middle" x="842.79" y="-23.6" font-family="Helvetica,sans-Serif" font-size="12.00">processing</text>
</g>
<!-- cfg&#45;&gt;expr -->
<g id="edge1" class="edge">
<title>cfg&#45;&gt;expr</title>
<path fill="none" stroke="#475569" d="M110.56,-74.51C128.41,-66.16 150.6,-57.05 171.53,-52 272.27,-27.68 300.45,-35 404.08,-35 404.08,-35 404.08,-35 553.73,-35 624.43,-35 704.9,-35 762.78,-35"/>
<polygon fill="#475569" stroke="#475569" points="762.72,-37.8 770.72,-35 762.72,-32.2 762.72,-37.8"/>
</g>
<!-- iso -->
<g id="node3" class="node">
<title>iso</title>
<path fill="#d1fae5" stroke="#0f766e" d="M287.81,-117.88C287.81,-117.88 183.53,-117.88 183.53,-117.88 177.53,-117.88 171.53,-111.88 171.53,-105.88 171.53,-105.88 171.53,-80.12 171.53,-80.12 171.53,-74.12 177.53,-68.12 183.53,-68.12 183.53,-68.12 287.81,-68.12 287.81,-68.12 293.81,-68.12 299.81,-74.12 299.81,-80.12 299.81,-80.12 299.81,-105.88 299.81,-105.88 299.81,-111.88 293.81,-117.88 287.81,-117.88"/>
<text text-anchor="middle" x="235.67" y="-100.72" font-family="Helvetica,sans-Serif" font-size="12.00">Isoform&#45;aware</text>
<text text-anchor="middle" x="235.67" y="-87.97" font-family="Helvetica,sans-Serif" font-size="12.00">transcript eligibility</text>
<text text-anchor="middle" x="235.67" y="-75.22" font-family="Helvetica,sans-Serif" font-size="12.00">Equal&#45;transcript prior</text>
</g>
<!-- cfg&#45;&gt;iso -->
<g id="edge2" class="edge">
<title>cfg&#45;&gt;iso</title>
<path fill="none" stroke="#475569" d="M131.59,-93C141.42,-93 151.76,-93 161.94,-93"/>
<polygon fill="#475569" stroke="#475569" points="161.71,-95.8 169.71,-93 161.71,-90.2 161.71,-95.8"/>
</g>
<!-- seq -->
<g id="node4" class="node">
<title>seq</title>
<path fill="#d1fae5" stroke="#0f766e" d="M286.31,-186.51C286.31,-186.51 185.03,-186.51 185.03,-186.51 179.03,-186.51 173.03,-180.51 173.03,-174.51 173.03,-174.51 173.03,-161.49 173.03,-161.49 173.03,-155.49 179.03,-149.49 185.03,-149.49 185.03,-149.49 286.31,-149.49 286.31,-149.49 292.31,-149.49 298.31,-155.49 298.31,-161.49 298.31,-161.49 298.31,-174.51 298.31,-174.51 298.31,-180.51 292.31,-186.51 286.31,-186.51"/>
<text text-anchor="middle" x="235.67" y="-169.35" font-family="Helvetica,sans-Serif" font-size="12.00">Transcript sequence</text>
<text text-anchor="middle" x="235.67" y="-156.6" font-family="Helvetica,sans-Serif" font-size="12.00">validation</text>
</g>
<!-- cfg&#45;&gt;seq -->
<g id="edge3" class="edge">
<title>cfg&#45;&gt;seq</title>
<path fill="none" stroke="#475569" d="M113.88,-111.35C135.62,-121.54 162.87,-134.32 185.98,-145.16"/>
<polygon fill="#475569" stroke="#475569" points="184.48,-147.55 192.92,-148.42 186.86,-142.48 184.48,-147.55"/>
</g>
<!-- comp -->
<g id="node9" class="node">
<title>comp</title>
<path fill="#d1fae5" stroke="#0f766e" d="M1081.59,-89.51C1081.59,-89.51 974.31,-89.51 974.31,-89.51 968.31,-89.51 962.31,-83.51 962.31,-77.51 962.31,-77.51 962.31,-64.49 962.31,-64.49 962.31,-58.49 968.31,-52.49 974.31,-52.49 974.31,-52.49 1081.59,-52.49 1081.59,-52.49 1087.59,-52.49 1093.59,-58.49 1093.59,-64.49 1093.59,-64.49 1093.59,-77.51 1093.59,-77.51 1093.59,-83.51 1087.59,-89.51 1081.59,-89.51"/>
<text text-anchor="middle" x="1027.95" y="-72.35" font-family="Helvetica,sans-Serif" font-size="12.00">Observed&#45;versus&#45;</text>
<text text-anchor="middle" x="1027.95" y="-59.6" font-family="Helvetica,sans-Serif" font-size="12.00">expected comparison</text>
</g>
<!-- expr&#45;&gt;comp -->
<g id="edge10" class="edge">
<title>expr&#45;&gt;comp</title>
<path fill="none" stroke="#475569" d="M913.29,-48.66C926.29,-51.21 939.91,-53.89 953.03,-56.47"/>
<polygon fill="#475569" stroke="#475569" points="952.14,-59.15 960.53,-57.95 953.22,-53.66 952.14,-59.15"/>
</g>
<!-- store -->
<g id="node15" class="node">
<title>store</title>
<path fill="#ccfbf1" stroke="#0f766e" d="M1090.96,-170.88C1090.96,-170.88 964.93,-170.88 964.93,-170.88 958.93,-170.88 952.93,-164.88 952.93,-158.88 952.93,-158.88 952.93,-133.12 952.93,-133.12 952.93,-127.12 958.93,-121.12 964.93,-121.12 964.93,-121.12 1090.96,-121.12 1090.96,-121.12 1096.96,-121.12 1102.96,-127.12 1102.96,-133.12 1102.96,-133.12 1102.96,-158.88 1102.96,-158.88 1102.96,-164.88 1096.96,-170.88 1090.96,-170.88"/>
<text text-anchor="middle" x="1027.95" y="-153.72" font-family="Helvetica,sans-Serif" font-size="12.00">Contracts, provenance,</text>
<text text-anchor="middle" x="1027.95" y="-140.97" font-family="Helvetica,sans-Serif" font-size="12.00">checksums, independent</text>
<text text-anchor="middle" x="1027.95" y="-128.22" font-family="Helvetica,sans-Serif" font-size="12.00">verification, artifact store</text>
</g>
<!-- expr&#45;&gt;store -->
<g id="edge4" class="edge">
<title>expr&#45;&gt;store</title>
<path fill="none" stroke="#475569" d="M887.29,-54C896.05,-58.47 904.99,-63.55 912.93,-69 932.89,-82.71 933.23,-91.91 952.93,-106 957.8,-109.48 963.01,-112.88 968.32,-116.12"/>
<polygon fill="#475569" stroke="#475569" points="966.54,-118.32 974.85,-119.98 969.39,-113.5 966.54,-118.32"/>
</g>
<!-- targ -->
<g id="node5" class="node">
<title>targ</title>
<path fill="#d1fae5" stroke="#0f766e" d="M458.34,-148.51C458.34,-148.51 351.81,-148.51 351.81,-148.51 345.81,-148.51 339.81,-142.51 339.81,-136.51 339.81,-136.51 339.81,-123.49 339.81,-123.49 339.81,-117.49 345.81,-111.49 351.81,-111.49 351.81,-111.49 458.34,-111.49 458.34,-111.49 464.34,-111.49 470.34,-117.49 470.34,-123.49 470.34,-123.49 470.34,-136.51 470.34,-136.51 470.34,-142.51 464.34,-148.51 458.34,-148.51"/>
<text text-anchor="middle" x="405.08" y="-131.35" font-family="Helvetica,sans-Serif" font-size="12.00">Sequence&#45;based</text>
<text text-anchor="middle" x="405.08" y="-118.6" font-family="Helvetica,sans-Serif" font-size="12.00">transcript targetability</text>
</g>
<!-- iso&#45;&gt;targ -->
<g id="edge5" class="edge">
<title>iso&#45;&gt;targ</title>
<path fill="none" stroke="#475569" d="M299.96,-106.99C309.88,-109.18 320.22,-111.47 330.35,-113.71"/>
<polygon fill="#475569" stroke="#475569" points="329.69,-116.43 338.11,-115.42 330.9,-110.96 329.69,-116.43"/>
</g>
<!-- seq&#45;&gt;targ -->
<g id="edge6" class="edge">
<title>seq&#45;&gt;targ</title>
<path fill="none" stroke="#475569" d="M298.53,-153.96C308.83,-151.62 319.61,-149.17 330.17,-146.78"/>
<polygon fill="#475569" stroke="#475569" points="330.73,-149.52 337.91,-145.02 329.49,-144.06 330.73,-149.52"/>
</g>
<!-- ratio -->
<g id="node6" class="node">
<title>ratio</title>
<path fill="#d1fae5" stroke="#0f766e" d="M583.12,-148.51C583.12,-148.51 522.34,-148.51 522.34,-148.51 516.34,-148.51 510.34,-142.51 510.34,-136.51 510.34,-136.51 510.34,-123.49 510.34,-123.49 510.34,-117.49 516.34,-111.49 522.34,-111.49 522.34,-111.49 583.12,-111.49 583.12,-111.49 589.12,-111.49 595.12,-117.49 595.12,-123.49 595.12,-123.49 595.12,-136.51 595.12,-136.51 595.12,-142.51 589.12,-148.51 583.12,-148.51"/>
<text text-anchor="middle" x="552.73" y="-131.35" font-family="Helvetica,sans-Serif" font-size="12.00">N / M / M/N</text>
<text text-anchor="middle" x="552.73" y="-118.6" font-family="Helvetica,sans-Serif" font-size="12.00">ratio artifacts</text>
</g>
<!-- targ&#45;&gt;ratio -->
<g id="edge7" class="edge">
<title>targ&#45;&gt;ratio</title>
<path fill="none" stroke="#475569" d="M470.81,-130C480.84,-130 491.08,-130 500.75,-130"/>
<polygon fill="#475569" stroke="#475569" points="500.68,-132.8 508.68,-130 500.68,-127.2 500.68,-132.8"/>
</g>
<!-- cal -->
<g id="node7" class="node">
<title>cal</title>
<path fill="#d1fae5" stroke="#0f766e" d="M720.65,-122.51C720.65,-122.51 647.12,-122.51 647.12,-122.51 641.12,-122.51 635.12,-116.51 635.12,-110.51 635.12,-110.51 635.12,-97.49 635.12,-97.49 635.12,-91.49 641.12,-85.49 647.12,-85.49 647.12,-85.49 720.65,-85.49 720.65,-85.49 726.65,-85.49 732.65,-91.49 732.65,-97.49 732.65,-97.49 732.65,-110.51 732.65,-110.51 732.65,-116.51 726.65,-122.51 720.65,-122.51"/>
<text text-anchor="middle" x="683.89" y="-105.35" font-family="Helvetica,sans-Serif" font-size="12.00">Intended&#45;target</text>
<text text-anchor="middle" x="683.89" y="-92.6" font-family="Helvetica,sans-Serif" font-size="12.00">calibration</text>
</g>
<!-- ratio&#45;&gt;cal -->
<g id="edge11" class="edge">
<title>ratio&#45;&gt;cal</title>
<path fill="none" stroke="#475569" d="M595.31,-121.63C604.9,-119.7 615.28,-117.61 625.42,-115.57"/>
<polygon fill="#475569" stroke="#475569" points="625.87,-118.33 633.16,-114.01 624.76,-112.84 625.87,-118.33"/>
</g>
<!-- ratio&#45;&gt;store -->
<g id="edge8" class="edge">
<title>ratio&#45;&gt;store</title>
<path fill="none" stroke="#475569" d="M595.49,-135.37C608.19,-136.8 622.21,-138.17 635.12,-139 741.14,-145.79 863.61,-146.9 943.01,-146.74"/>
<polygon fill="#475569" stroke="#475569" points="942.97,-149.54 950.96,-146.71 942.95,-143.94 942.97,-149.54"/>
</g>
<!-- exp -->
<g id="node8" class="node">
<title>exp</title>
<path fill="#d1fae5" stroke="#0f766e" d="M896.81,-122.51C896.81,-122.51 788.78,-122.51 788.78,-122.51 782.78,-122.51 776.78,-116.51 776.78,-110.51 776.78,-110.51 776.78,-97.49 776.78,-97.49 776.78,-91.49 782.78,-85.49 788.78,-85.49 788.78,-85.49 896.81,-85.49 896.81,-85.49 902.81,-85.49 908.81,-91.49 908.81,-97.49 908.81,-97.49 908.81,-110.51 908.81,-110.51 908.81,-116.51 902.81,-122.51 896.81,-122.51"/>
<text text-anchor="middle" x="842.79" y="-105.35" font-family="Helvetica,sans-Serif" font-size="12.00">Expected direct&#45;effect</text>
<text text-anchor="middle" x="842.79" y="-92.6" font-family="Helvetica,sans-Serif" font-size="12.00">estimation</text>
</g>
<!-- cal&#45;&gt;exp -->
<g id="edge12" class="edge">
<title>cal&#45;&gt;exp</title>
<path fill="none" stroke="#475569" d="M732.81,-104C743.69,-104 755.5,-104 767.2,-104"/>
<polygon fill="#475569" stroke="#475569" points="767.02,-106.8 775.02,-104 767.02,-101.2 767.02,-106.8"/>
</g>
<!-- exp&#45;&gt;comp -->
<g id="edge13" class="edge">
<title>exp&#45;&gt;comp</title>
<path fill="none" stroke="#475569" d="M909.14,-92.23C923.21,-89.69 938.19,-86.99 952.58,-84.4"/>
<polygon fill="#475569" stroke="#475569" points="953.06,-87.16 960.44,-82.98 952.07,-81.65 953.06,-87.16"/>
</g>
<!-- res -->
<g id="node10" class="node">
<title>res</title>
<path fill="#d1fae5" stroke="#0f766e" d="M1223.24,-130.51C1223.24,-130.51 1154.96,-130.51 1154.96,-130.51 1148.96,-130.51 1142.96,-124.51 1142.96,-118.51 1142.96,-118.51 1142.96,-105.49 1142.96,-105.49 1142.96,-99.49 1148.96,-93.49 1154.96,-93.49 1154.96,-93.49 1223.24,-93.49 1223.24,-93.49 1229.24,-93.49 1235.24,-99.49 1235.24,-105.49 1235.24,-105.49 1235.24,-118.51 1235.24,-118.51 1235.24,-124.51 1229.24,-130.51 1223.24,-130.51"/>
<text text-anchor="middle" x="1189.1" y="-113.35" font-family="Helvetica,sans-Serif" font-size="12.00">Unresolved</text>
<text text-anchor="middle" x="1189.1" y="-100.6" font-family="Helvetica,sans-Serif" font-size="12.00">residual value</text>
</g>
<!-- comp&#45;&gt;res -->
<g id="edge14" class="edge">
<title>comp&#45;&gt;res</title>
<path fill="none" stroke="#475569" d="M1093.68,-87.68C1106.98,-91.1 1120.85,-94.67 1133.73,-97.99"/>
<polygon fill="#475569" stroke="#475569" points="1133.01,-100.7 1141.45,-99.98 1134.4,-95.28 1133.01,-100.7"/>
</g>
<!-- support -->
<g id="node11" class="node">
<title>support</title>
<path fill="#d1fae5" stroke="#0f766e" d="M1371.27,-204.51C1371.27,-204.51 1287.24,-204.51 1287.24,-204.51 1281.24,-204.51 1275.24,-198.51 1275.24,-192.51 1275.24,-192.51 1275.24,-179.49 1275.24,-179.49 1275.24,-173.49 1281.24,-167.49 1287.24,-167.49 1287.24,-167.49 1371.27,-167.49 1371.27,-167.49 1377.27,-167.49 1383.27,-173.49 1383.27,-179.49 1383.27,-179.49 1383.27,-192.51 1383.27,-192.51 1383.27,-198.51 1377.27,-204.51 1371.27,-204.51"/>
<text text-anchor="middle" x="1329.26" y="-187.35" font-family="Helvetica,sans-Serif" font-size="12.00">Residual support</text>
<text text-anchor="middle" x="1329.26" y="-174.6" font-family="Helvetica,sans-Serif" font-size="12.00">characterization</text>
</g>
<!-- res&#45;&gt;support -->
<g id="edge15" class="edge">
<title>res&#45;&gt;support</title>
<path fill="none" stroke="#475569" d="M1225.32,-130.86C1243.43,-140.56 1265.66,-152.47 1284.82,-162.73"/>
<polygon fill="#475569" stroke="#475569" points="1283.39,-165.15 1291.77,-166.46 1286.04,-160.21 1283.39,-165.15"/>
</g>
<!-- secint -->
<g id="node12" class="node">
<title>secint</title>
<path fill="#d1fae5" stroke="#0f766e" d="M1538.05,-224.88C1538.05,-224.88 1435.27,-224.88 1435.27,-224.88 1429.27,-224.88 1423.27,-218.88 1423.27,-212.88 1423.27,-212.88 1423.27,-187.12 1423.27,-187.12 1423.27,-181.12 1429.27,-175.12 1435.27,-175.12 1435.27,-175.12 1538.05,-175.12 1538.05,-175.12 1544.05,-175.12 1550.05,-181.12 1550.05,-187.12 1550.05,-187.12 1550.05,-212.88 1550.05,-212.88 1550.05,-218.88 1544.05,-224.88 1538.05,-224.88"/>
<text text-anchor="middle" x="1486.66" y="-207.72" font-family="Helvetica,sans-Serif" font-size="12.00">Secondary evidence</text>
<text text-anchor="middle" x="1486.66" y="-194.97" font-family="Helvetica,sans-Serif" font-size="12.00">integration</text>
<text text-anchor="middle" x="1486.66" y="-182.22" font-family="Helvetica,sans-Serif" font-size="12.00">classification&#45;ready</text>
</g>
<!-- support&#45;&gt;secint -->
<g id="edge17" class="edge">
<title>support&#45;&gt;secint</title>
<path fill="none" stroke="#475569" d="M1383.74,-190.82C1393.42,-191.69 1403.65,-192.61 1413.76,-193.52"/>
<polygon fill="#475569" stroke="#475569" points="1413.26,-196.29 1421.48,-194.22 1413.76,-190.71 1413.26,-196.29"/>
</g>
<!-- cls -->
<g id="node13" class="node">
<title>cls</title>
<path fill="#d1fae5" stroke="#0f766e" d="M1698.08,-224.88C1698.08,-224.88 1602.05,-224.88 1602.05,-224.88 1596.05,-224.88 1590.05,-218.88 1590.05,-212.88 1590.05,-212.88 1590.05,-187.12 1590.05,-187.12 1590.05,-181.12 1596.05,-175.12 1602.05,-175.12 1602.05,-175.12 1698.08,-175.12 1698.08,-175.12 1704.08,-175.12 1710.08,-181.12 1710.08,-187.12 1710.08,-187.12 1710.08,-212.88 1710.08,-212.88 1710.08,-218.88 1704.08,-224.88 1698.08,-224.88"/>
<text text-anchor="middle" x="1650.07" y="-207.72" font-family="Helvetica,sans-Serif" font-size="12.00">Final evidence</text>
<text text-anchor="middle" x="1650.07" y="-194.97" font-family="Helvetica,sans-Serif" font-size="12.00">classification</text>
<text text-anchor="middle" x="1650.07" y="-182.22" font-family="Helvetica,sans-Serif" font-size="12.00">conservative labels</text>
</g>
<!-- secint&#45;&gt;cls -->
<g id="edge19" class="edge">
<title>secint&#45;&gt;cls</title>
<path fill="none" stroke="#475569" d="M1550.53,-200C1560.32,-200 1570.48,-200 1580.4,-200"/>
<polygon fill="#475569" stroke="#475569" points="1580.29,-202.8 1588.29,-200 1580.29,-197.2 1580.29,-202.8"/>
</g>
<!-- bench -->
<g id="node16" class="node">
<title>bench</title>
<path fill="#f1f5f9" stroke="#94a3b8" stroke-dasharray="5,2" d="M1869.36,-218.51C1869.36,-218.51 1762.08,-218.51 1762.08,-218.51 1756.08,-218.51 1750.08,-212.51 1750.08,-206.51 1750.08,-206.51 1750.08,-193.49 1750.08,-193.49 1750.08,-187.49 1756.08,-181.49 1762.08,-181.49 1762.08,-181.49 1869.36,-181.49 1869.36,-181.49 1875.36,-181.49 1881.36,-187.49 1881.36,-193.49 1881.36,-193.49 1881.36,-206.51 1881.36,-206.51 1881.36,-212.51 1875.36,-218.51 1869.36,-218.51"/>
<text text-anchor="middle" x="1815.72" y="-201.35" font-family="Helvetica,sans-Serif" font-size="12.00">External biological</text>
<text text-anchor="middle" x="1815.72" y="-188.6" font-family="Helvetica,sans-Serif" font-size="12.00">benchmark validation</text>
</g>
<!-- cls&#45;&gt;bench -->
<g id="edge20" class="edge">
<title>cls&#45;&gt;bench</title>
<path fill="none" stroke="#94a3b8" stroke-dasharray="5,2" d="M1710.15,-200C1719.96,-200 1730.25,-200 1740.38,-200"/>
<polygon fill="#94a3b8" stroke="#94a3b8" points="1740.11,-202.8 1748.11,-200 1740.11,-197.2 1740.11,-202.8"/>
</g>
<!-- path -->
<g id="node14" class="node">
<title>path</title>
<path fill="#d1fae5" stroke="#0f766e" d="M897.18,-238.88C897.18,-238.88 788.4,-238.88 788.4,-238.88 782.4,-238.88 776.4,-232.88 776.4,-226.88 776.4,-226.88 776.4,-201.12 776.4,-201.12 776.4,-195.12 782.4,-189.12 788.4,-189.12 788.4,-189.12 897.18,-189.12 897.18,-189.12 903.18,-189.12 909.18,-195.12 909.18,-201.12 909.18,-201.12 909.18,-226.88 909.18,-226.88 909.18,-232.88 903.18,-238.88 897.18,-238.88"/>
<text text-anchor="middle" x="842.79" y="-221.72" font-family="Helvetica,sans-Serif" font-size="12.00">Pathway and</text>
<text text-anchor="middle" x="842.79" y="-208.97" font-family="Helvetica,sans-Serif" font-size="12.00">mechanistic evidence</text>
<text text-anchor="middle" x="842.79" y="-196.22" font-family="Helvetica,sans-Serif" font-size="12.00">architecture</text>
</g>
<!-- path&#45;&gt;support -->
<g id="edge16" class="edge">
<title>path&#45;&gt;support</title>
<path fill="none" stroke="#0f766e" stroke-dasharray="5,2" d="M909.63,-210.19C1003.21,-204.79 1173.49,-194.94 1265.4,-189.63"/>
<polygon fill="#0f766e" stroke="#0f766e" points="1265.52,-192.43 1273.35,-189.17 1265.2,-186.84 1265.52,-192.43"/>
</g>
<!-- path&#45;&gt;secint -->
<g id="edge18" class="edge">
<title>path&#45;&gt;secint</title>
<path fill="none" stroke="#0f766e" stroke-dasharray="5,2" d="M909.61,-219.67C1011.44,-227.35 1213.2,-238.26 1383.27,-221 1393.15,-220 1403.49,-218.46 1413.64,-216.67"/>
<polygon fill="#0f766e" stroke="#0f766e" points="1414.04,-219.44 1421.4,-215.23 1413.02,-213.94 1414.04,-219.44"/>
</g>
<!-- path&#45;&gt;store -->
<g id="edge9" class="edge">
<title>path&#45;&gt;store</title>
<path fill="none" stroke="#475569" d="M909.65,-189.55C922.69,-184.71 936.49,-179.58 949.86,-174.62"/>
<polygon fill="#475569" stroke="#475569" points="950.64,-177.32 957.16,-171.91 948.69,-172.07 950.64,-177.32"/>
</g>
<!-- realcal -->
<g id="node17" class="node">
<title>realcal</title>
<path fill="#f1f5f9" stroke="#94a3b8" stroke-dasharray="5,2" d="M2027.14,-224.88C2027.14,-224.88 1933.36,-224.88 1933.36,-224.88 1927.36,-224.88 1921.36,-218.88 1921.36,-212.88 1921.36,-212.88 1921.36,-187.12 1921.36,-187.12 1921.36,-181.12 1927.36,-175.12 1933.36,-175.12 1933.36,-175.12 2027.14,-175.12 2027.14,-175.12 2033.14,-175.12 2039.14,-181.12 2039.14,-187.12 2039.14,-187.12 2039.14,-212.88 2039.14,-212.88 2039.14,-218.88 2033.14,-224.88 2027.14,-224.88"/>
<text text-anchor="middle" x="1980.25" y="-207.72" font-family="Helvetica,sans-Serif" font-size="12.00">Calibration against</text>
<text text-anchor="middle" x="1980.25" y="-194.97" font-family="Helvetica,sans-Serif" font-size="12.00">real perturbation</text>
<text text-anchor="middle" x="1980.25" y="-182.22" font-family="Helvetica,sans-Serif" font-size="12.00">datasets</text>
</g>
<!-- bench&#45;&gt;realcal -->
<g id="edge21" class="edge">
<title>bench&#45;&gt;realcal</title>
<path fill="none" stroke="#94a3b8" stroke-dasharray="5,2" d="M1881.42,-200C1891.35,-200 1901.62,-200 1911.61,-200"/>
<polygon fill="#94a3b8" stroke="#94a3b8" points="1911.57,-202.8 1919.57,-200 1911.57,-197.2 1911.57,-202.8"/>
</g>
<!-- mlweight -->
<g id="node18" class="node">
<title>mlweight</title>
<path fill="#f1f5f9" stroke="#94a3b8" stroke-dasharray="5,2" d="M2201.42,-224.88C2201.42,-224.88 2091.14,-224.88 2091.14,-224.88 2085.14,-224.88 2079.14,-218.88 2079.14,-212.88 2079.14,-212.88 2079.14,-187.12 2079.14,-187.12 2079.14,-181.12 2085.14,-175.12 2091.14,-175.12 2091.14,-175.12 2201.42,-175.12 2201.42,-175.12 2207.42,-175.12 2213.42,-181.12 2213.42,-187.12 2213.42,-187.12 2213.42,-212.88 2213.42,-212.88 2213.42,-218.88 2207.42,-224.88 2201.42,-224.88"/>
<text text-anchor="middle" x="2146.28" y="-207.72" font-family="Helvetica,sans-Serif" font-size="12.00">Optional ML&#45;assisted</text>
<text text-anchor="middle" x="2146.28" y="-194.97" font-family="Helvetica,sans-Serif" font-size="12.00">evidence weighting /</text>
<text text-anchor="middle" x="2146.28" y="-182.22" font-family="Helvetica,sans-Serif" font-size="12.00">confidence calibration</text>
</g>
<!-- realcal&#45;&gt;mlweight -->
<g id="edge22" class="edge">
<title>realcal&#45;&gt;mlweight</title>
<path fill="none" stroke="#94a3b8" stroke-dasharray="5,2" d="M2039.54,-200C2049.27,-200 2059.49,-200 2069.58,-200"/>
<polygon fill="#94a3b8" stroke="#94a3b8" points="2069.27,-202.8 2077.27,-200 2069.27,-197.2 2069.27,-202.8"/>
</g>
<!-- tuning -->
<g id="node19" class="node">
<title>tuning</title>
<path fill="#f1f5f9" stroke="#94a3b8" stroke-dasharray="5,2" d="M2369.7,-224.88C2369.7,-224.88 2265.42,-224.88 2265.42,-224.88 2259.42,-224.88 2253.42,-218.88 2253.42,-212.88 2253.42,-212.88 2253.42,-187.12 2253.42,-187.12 2253.42,-181.12 2259.42,-175.12 2265.42,-175.12 2265.42,-175.12 2369.7,-175.12 2369.7,-175.12 2375.7,-175.12 2381.7,-181.12 2381.7,-187.12 2381.7,-187.12 2381.7,-212.88 2381.7,-212.88 2381.7,-218.88 2375.7,-224.88 2369.7,-224.88"/>
<text text-anchor="middle" x="2317.56" y="-207.72" font-family="Helvetica,sans-Serif" font-size="12.00">Optional model</text>
<text text-anchor="middle" x="2317.56" y="-194.97" font-family="Helvetica,sans-Serif" font-size="12.00">tuning after</text>
<text text-anchor="middle" x="2317.56" y="-182.22" font-family="Helvetica,sans-Serif" font-size="12.00">benchmark evidence</text>
</g>
<!-- mlweight&#45;&gt;tuning -->
<g id="edge23" class="edge">
<title>mlweight&#45;&gt;tuning</title>
<path fill="none" stroke="#94a3b8" stroke-dasharray="5,2" d="M2213.7,-200C2223.53,-200 2233.7,-200 2243.65,-200"/>
<polygon fill="#94a3b8" stroke="#94a3b8" points="2243.59,-202.8 2251.59,-200 2243.59,-197.2 2243.59,-202.8"/>
</g>
<!-- futureval -->
<g id="node20" class="node">
<title>futureval</title>
<path fill="#f1f5f9" stroke="#94a3b8" stroke-dasharray="5,2" d="M2548.48,-224.88C2548.48,-224.88 2433.7,-224.88 2433.7,-224.88 2427.7,-224.88 2421.7,-218.88 2421.7,-212.88 2421.7,-212.88 2421.7,-187.12 2421.7,-187.12 2421.7,-181.12 2427.7,-175.12 2433.7,-175.12 2433.7,-175.12 2548.48,-175.12 2548.48,-175.12 2554.48,-175.12 2560.48,-181.12 2560.48,-187.12 2560.48,-187.12 2560.48,-212.88 2560.48,-212.88 2560.48,-218.88 2554.48,-224.88 2548.48,-224.88"/>
<text text-anchor="middle" x="2491.09" y="-207.72" font-family="Helvetica,sans-Serif" font-size="12.00">Possible future</text>
<text text-anchor="middle" x="2491.09" y="-194.97" font-family="Helvetica,sans-Serif" font-size="12.00">biological or regulatory</text>
<text text-anchor="middle" x="2491.09" y="-182.22" font-family="Helvetica,sans-Serif" font-size="12.00">validation</text>
</g>
<!-- tuning&#45;&gt;futureval -->
<g id="edge24" class="edge">
<title>tuning&#45;&gt;futureval</title>
<path fill="none" stroke="#94a3b8" stroke-dasharray="5,2" d="M2381.94,-200C2391.64,-200 2401.74,-200 2411.7,-200"/>
<polygon fill="#94a3b8" stroke="#94a3b8" points="2411.69,-202.8 2419.69,-200 2411.69,-197.2 2411.69,-202.8"/>
</g>
</g>
</svg>
