<?xml version="1.0" encoding="UTF-8" standalone="no"?>
<!DOCTYPE svg PUBLIC "-//W3C//DTD SVG 1.1//EN"
 "http://www.w3.org/Graphics/SVG/1.1/DTD/svg11.dtd">
<!-- Generated by graphviz version 12.1.0 (20240811.2233)
 -->
<!-- Title: G Pages: 1 -->
<svg width="1620pt" height="353pt"
 viewBox="0.00 0.00 1620.50 353.06" xmlns="http://www.w3.org/2000/svg" xmlns:xlink="http://www.w3.org/1999/xlink">
<g id="graph0" class="graph" transform="scale(1 1) rotate(0) translate(21.6 331.46)">
<title>G</title>
<polygon fill="white" stroke="none" points="-21.6,21.6 -21.6,-331.46 1598.9,-331.46 1598.9,21.6 -21.6,21.6"/>
<g id="clust1" class="cluster">
<title>cluster_current</title>
<path fill="white" stroke="#0f766e" stroke-width="2" d="M20,-109.86C20,-109.86 834.4,-109.86 834.4,-109.86 840.4,-109.86 846.4,-115.86 846.4,-121.86 846.4,-121.86 846.4,-289.86 846.4,-289.86 846.4,-295.86 840.4,-301.86 834.4,-301.86 834.4,-301.86 20,-301.86 20,-301.86 14,-301.86 8,-295.86 8,-289.86 8,-289.86 8,-121.86 8,-121.86 8,-115.86 14,-109.86 20,-109.86"/>
<text text-anchor="middle" x="427.2" y="-284.56" font-family="Helvetica,sans-Serif" font-weight="bold" font-size="14.00">Current validated release</text>
</g>
<g id="clust2" class="cluster">
<title>cluster_planned</title>
<path fill="white" stroke="#94a3b8" stroke-width="2" stroke-dasharray="5,2" d="M720.87,-12.86C720.87,-12.86 1557.3,-12.86 1557.3,-12.86 1563.3,-12.86 1569.3,-18.86 1569.3,-24.86 1569.3,-24.86 1569.3,-89.86 1569.3,-89.86 1569.3,-95.86 1563.3,-101.86 1557.3,-101.86 1557.3,-101.86 720.87,-101.86 720.87,-101.86 714.87,-101.86 708.87,-95.86 708.87,-89.86 708.87,-89.86 708.87,-24.86 708.87,-24.86 708.87,-18.86 714.87,-12.86 720.87,-12.86"/>
<text text-anchor="middle" x="1139.09" y="-84.56" font-family="Helvetica,sans-Serif" font-weight="bold" font-size="14.00">Planned integration</text>
</g>
<!-- cfg -->
<g id="node1" class="node">
<title>cfg</title>
<path fill="#d1fae5" stroke="#0f766e" d="M119.53,-200.86C119.53,-200.86 28,-200.86 28,-200.86 22,-200.86 16,-194.86 16,-188.86 16,-188.86 16,-176.86 16,-176.86 16,-170.86 22,-164.86 28,-164.86 28,-164.86 119.53,-164.86 119.53,-164.86 125.53,-164.86 131.53,-170.86 131.53,-176.86 131.53,-176.86 131.53,-188.86 131.53,-188.86 131.53,-194.86 125.53,-200.86 119.53,-200.86"/>
<text text-anchor="middle" x="73.77" y="-177.84" font-family="Helvetica,sans-Serif" font-size="12.00">Input configuration</text>
</g>
<!-- expr -->
<g id="node2" class="node">
<title>expr</title>
<path fill="#d1fae5" stroke="#0f766e" d="M468.09,-153.86C468.09,-153.86 351.81,-153.86 351.81,-153.86 345.81,-153.86 339.81,-147.86 339.81,-141.86 339.81,-141.86 339.81,-129.86 339.81,-129.86 339.81,-123.86 345.81,-117.86 351.81,-117.86 351.81,-117.86 468.09,-117.86 468.09,-117.86 474.09,-117.86 480.09,-123.86 480.09,-129.86 480.09,-129.86 480.09,-141.86 480.09,-141.86 480.09,-147.86 474.09,-153.86 468.09,-153.86"/>
<text text-anchor="middle" x="409.95" y="-130.84" font-family="Helvetica,sans-Serif" font-size="12.00">Normalized expression</text>
</g>
<!-- cfg&#45;&gt;expr -->
<g id="edge1" class="edge">
<title>cfg&#45;&gt;expr</title>
<path fill="none" stroke="#475569" d="M117.33,-164.38C133.93,-158 153.32,-151.53 171.53,-147.86 223.67,-137.36 283.48,-134.39 330.03,-134.03"/>
<polygon fill="#475569" stroke="#475569" points="329.95,-136.83 337.94,-134 329.93,-131.23 329.95,-136.83"/>
</g>
<!-- iso -->
<g id="node3" class="node">
<title>iso</title>
<path fill="#d1fae5" stroke="#0f766e" d="M287.81,-201.37C287.81,-201.37 183.53,-201.37 183.53,-201.37 177.53,-201.37 171.53,-195.37 171.53,-189.37 171.53,-189.37 171.53,-176.35 171.53,-176.35 171.53,-170.35 177.53,-164.35 183.53,-164.35 183.53,-164.35 287.81,-164.35 287.81,-164.35 293.81,-164.35 299.81,-170.35 299.81,-176.35 299.81,-176.35 299.81,-189.37 299.81,-189.37 299.81,-195.37 293.81,-201.37 287.81,-201.37"/>
<text text-anchor="middle" x="235.67" y="-184.21" font-family="Helvetica,sans-Serif" font-size="12.00">Isoform uncertainty</text>
<text text-anchor="middle" x="235.67" y="-171.46" font-family="Helvetica,sans-Serif" font-size="12.00">Equal&#45;transcript prior</text>
</g>
<!-- cfg&#45;&gt;iso -->
<g id="edge2" class="edge">
<title>cfg&#45;&gt;iso</title>
<path fill="none" stroke="#475569" d="M131.59,-182.86C141.42,-182.86 151.76,-182.86 161.94,-182.86"/>
<polygon fill="#475569" stroke="#475569" points="161.71,-185.66 169.71,-182.86 161.71,-180.06 161.71,-185.66"/>
</g>
<!-- seq -->
<g id="node4" class="node">
<title>seq</title>
<path fill="#d1fae5" stroke="#0f766e" d="M286.31,-270.37C286.31,-270.37 185.03,-270.37 185.03,-270.37 179.03,-270.37 173.03,-264.37 173.03,-258.37 173.03,-258.37 173.03,-245.35 173.03,-245.35 173.03,-239.35 179.03,-233.35 185.03,-233.35 185.03,-233.35 286.31,-233.35 286.31,-233.35 292.31,-233.35 298.31,-239.35 298.31,-245.35 298.31,-245.35 298.31,-258.37 298.31,-258.37 298.31,-264.37 292.31,-270.37 286.31,-270.37"/>
<text text-anchor="middle" x="235.67" y="-253.21" font-family="Helvetica,sans-Serif" font-size="12.00">Transcript sequence</text>
<text text-anchor="middle" x="235.67" y="-240.46" font-family="Helvetica,sans-Serif" font-size="12.00">validation</text>
</g>
<!-- cfg&#45;&gt;seq -->
<g id="edge3" class="edge">
<title>cfg&#45;&gt;seq</title>
<path fill="none" stroke="#475569" d="M117.62,-201.36C137.54,-209.95 161.41,-220.25 182.38,-229.3"/>
<polygon fill="#475569" stroke="#475569" points="181.02,-231.76 189.47,-232.36 183.24,-226.62 181.02,-231.76"/>
</g>
<!-- store -->
<g id="node8" class="node">
<title>store</title>
<path fill="#ccfbf1" stroke="#0f766e" d="M826.4,-189.37C826.4,-189.37 704.87,-189.37 704.87,-189.37 698.87,-189.37 692.87,-183.37 692.87,-177.37 692.87,-177.37 692.87,-164.35 692.87,-164.35 692.87,-158.35 698.87,-152.35 704.87,-152.35 704.87,-152.35 826.4,-152.35 826.4,-152.35 832.4,-152.35 838.4,-158.35 838.4,-164.35 838.4,-164.35 838.4,-177.37 838.4,-177.37 838.4,-183.37 832.4,-189.37 826.4,-189.37"/>
<text text-anchor="middle" x="765.63" y="-172.21" font-family="Helvetica,sans-Serif" font-size="12.00">Contracts, provenance,</text>
<text text-anchor="middle" x="765.63" y="-159.46" font-family="Helvetica,sans-Serif" font-size="12.00">verification, artifact store</text>
</g>
<!-- expr&#45;&gt;store -->
<g id="edge4" class="edge">
<title>expr&#45;&gt;store</title>
<path fill="none" stroke="#475569" d="M480.46,-130.32C529.04,-127.8 595.26,-127.06 652.87,-135.86 670.67,-138.59 689.53,-143.61 706.59,-149.03"/>
<polygon fill="#475569" stroke="#475569" points="705.41,-151.59 713.89,-151.41 707.15,-146.26 705.41,-151.59"/>
</g>
<!-- comp -->
<g id="node11" class="node">
<title>comp</title>
<path fill="#f1f5f9" stroke="#94a3b8" stroke-dasharray="5,2" d="M1137.46,-67.37C1137.46,-67.37 1030.18,-67.37 1030.18,-67.37 1024.18,-67.37 1018.18,-61.37 1018.18,-55.37 1018.18,-55.37 1018.18,-42.35 1018.18,-42.35 1018.18,-36.35 1024.18,-30.35 1030.18,-30.35 1030.18,-30.35 1137.46,-30.35 1137.46,-30.35 1143.46,-30.35 1149.46,-36.35 1149.46,-42.35 1149.46,-42.35 1149.46,-55.37 1149.46,-55.37 1149.46,-61.37 1143.46,-67.37 1137.46,-67.37"/>
<text text-anchor="middle" x="1083.82" y="-50.21" font-family="Helvetica,sans-Serif" font-size="12.00">Observed&#45;versus&#45;</text>
<text text-anchor="middle" x="1083.82" y="-37.46" font-family="Helvetica,sans-Serif" font-size="12.00">expected comparison</text>
</g>
<!-- expr&#45;&gt;comp -->
<g id="edge10" class="edge">
<title>expr&#45;&gt;comp</title>
<path fill="none" stroke="#94a3b8" stroke-dasharray="5,2" d="M442.57,-117.52C493.34,-89.25 597.06,-36.26 692.87,-16.86 817.15,8.29 852.77,1.88 978.18,-16.86 992.88,-19.06 1008.38,-22.91 1022.8,-27.19"/>
<polygon fill="#94a3b8" stroke="#94a3b8" points="1021.71,-29.78 1030.18,-29.45 1023.35,-24.43 1021.71,-29.78"/>
</g>
<!-- targ -->
<g id="node5" class="node">
<title>targ</title>
<path fill="#d1fae5" stroke="#0f766e" d="M463.22,-223.37C463.22,-223.37 356.69,-223.37 356.69,-223.37 350.69,-223.37 344.69,-217.37 344.69,-211.37 344.69,-211.37 344.69,-198.35 344.69,-198.35 344.69,-192.35 350.69,-186.35 356.69,-186.35 356.69,-186.35 463.22,-186.35 463.22,-186.35 469.22,-186.35 475.22,-192.35 475.22,-198.35 475.22,-198.35 475.22,-211.37 475.22,-211.37 475.22,-217.37 469.22,-223.37 463.22,-223.37"/>
<text text-anchor="middle" x="409.95" y="-206.21" font-family="Helvetica,sans-Serif" font-size="12.00">Guide&#45;strand</text>
<text text-anchor="middle" x="409.95" y="-193.46" font-family="Helvetica,sans-Serif" font-size="12.00">transcript targetability</text>
</g>
<!-- iso&#45;&gt;targ -->
<g id="edge5" class="edge">
<title>iso&#45;&gt;targ</title>
<path fill="none" stroke="#475569" d="M299.84,-190.93C311.28,-192.39 323.31,-193.93 335.03,-195.42"/>
<polygon fill="#475569" stroke="#475569" points="334.55,-198.19 342.84,-196.42 335.26,-192.63 334.55,-198.19"/>
</g>
<!-- seq&#45;&gt;targ -->
<g id="edge6" class="edge">
<title>seq&#45;&gt;targ</title>
<path fill="none" stroke="#475569" d="M298.38,-235.03C310.42,-231.74 323.16,-228.27 335.54,-224.89"/>
<polygon fill="#475569" stroke="#475569" points="336.03,-227.66 343.01,-222.85 334.56,-222.26 336.03,-227.66"/>
</g>
<!-- ratio -->
<g id="node6" class="node">
<title>ratio</title>
<path fill="#d1fae5" stroke="#0f766e" d="M616.87,-189.37C616.87,-189.37 556.09,-189.37 556.09,-189.37 550.09,-189.37 544.09,-183.37 544.09,-177.37 544.09,-177.37 544.09,-164.35 544.09,-164.35 544.09,-158.35 550.09,-152.35 556.09,-152.35 556.09,-152.35 616.87,-152.35 616.87,-152.35 622.87,-152.35 628.87,-158.35 628.87,-164.35 628.87,-164.35 628.87,-177.37 628.87,-177.37 628.87,-183.37 622.87,-189.37 616.87,-189.37"/>
<text text-anchor="middle" x="586.48" y="-172.21" font-family="Helvetica,sans-Serif" font-size="12.00">N / M / M/N</text>
<text text-anchor="middle" x="586.48" y="-159.46" font-family="Helvetica,sans-Serif" font-size="12.00">ratio artifacts</text>
</g>
<!-- targ&#45;&gt;ratio -->
<g id="edge7" class="edge">
<title>targ&#45;&gt;ratio</title>
<path fill="none" stroke="#475569" d="M475.44,-192.3C494.96,-188.5 516.12,-184.38 534.62,-180.77"/>
<polygon fill="#475569" stroke="#475569" points="534.94,-183.56 542.26,-179.28 533.87,-178.07 534.94,-183.56"/>
</g>
<!-- ratio&#45;&gt;store -->
<g id="edge8" class="edge">
<title>ratio&#45;&gt;store</title>
<path fill="none" stroke="#475569" d="M629.01,-170.86C645.2,-170.86 664.34,-170.86 683.06,-170.86"/>
<polygon fill="#475569" stroke="#475569" points="682.98,-173.66 690.98,-170.86 682.98,-168.06 682.98,-173.66"/>
</g>
<!-- cal -->
<g id="node9" class="node">
<title>cal</title>
<path fill="#f1f5f9" stroke="#94a3b8" stroke-dasharray="5,2" d="M802.4,-70.37C802.4,-70.37 728.87,-70.37 728.87,-70.37 722.87,-70.37 716.87,-64.37 716.87,-58.37 716.87,-58.37 716.87,-45.35 716.87,-45.35 716.87,-39.35 722.87,-33.35 728.87,-33.35 728.87,-33.35 802.4,-33.35 802.4,-33.35 808.4,-33.35 814.4,-39.35 814.4,-45.35 814.4,-45.35 814.4,-58.37 814.4,-58.37 814.4,-64.37 808.4,-70.37 802.4,-70.37"/>
<text text-anchor="middle" x="765.63" y="-53.21" font-family="Helvetica,sans-Serif" font-size="12.00">Intended&#45;target</text>
<text text-anchor="middle" x="765.63" y="-40.46" font-family="Helvetica,sans-Serif" font-size="12.00">calibration</text>
</g>
<!-- ratio&#45;&gt;cal -->
<g id="edge11" class="edge">
<title>ratio&#45;&gt;cal</title>
<path fill="none" stroke="#94a3b8" stroke-dasharray="5,2" d="M615.55,-152.01C646.17,-131.44 695.27,-98.46 728.69,-76.01"/>
<polygon fill="#94a3b8" stroke="#94a3b8" points="730.07,-78.46 735.15,-71.67 726.94,-73.81 730.07,-78.46"/>
</g>
<!-- path -->
<g id="node7" class="node">
<title>path</title>
<path fill="#d1fae5" stroke="#0f766e" d="M640.87,-270.75C640.87,-270.75 532.09,-270.75 532.09,-270.75 526.09,-270.75 520.09,-264.75 520.09,-258.75 520.09,-258.75 520.09,-232.98 520.09,-232.98 520.09,-226.98 526.09,-220.98 532.09,-220.98 532.09,-220.98 640.87,-220.98 640.87,-220.98 646.87,-220.98 652.87,-226.98 652.87,-232.98 652.87,-232.98 652.87,-258.75 652.87,-258.75 652.87,-264.75 646.87,-270.75 640.87,-270.75"/>
<text text-anchor="middle" x="586.48" y="-253.59" font-family="Helvetica,sans-Serif" font-size="12.00">Pathway and</text>
<text text-anchor="middle" x="586.48" y="-240.84" font-family="Helvetica,sans-Serif" font-size="12.00">mechanistic evidence</text>
<text text-anchor="middle" x="586.48" y="-228.09" font-family="Helvetica,sans-Serif" font-size="12.00">architecture</text>
</g>
<!-- path&#45;&gt;store -->
<g id="edge9" class="edge">
<title>path&#45;&gt;store</title>
<path fill="none" stroke="#475569" d="M646.96,-220.68C667.81,-211.86 691.07,-202.01 711.37,-193.41"/>
<polygon fill="#475569" stroke="#475569" points="712.21,-196.1 718.48,-190.4 710.03,-190.94 712.21,-196.1"/>
</g>
<!-- sec -->
<g id="node13" class="node">
<title>sec</title>
<path fill="#f1f5f9" stroke="#94a3b8" stroke-dasharray="5,2" d="M1390.02,-67.37C1390.02,-67.37 1306.74,-67.37 1306.74,-67.37 1300.74,-67.37 1294.74,-61.37 1294.74,-55.37 1294.74,-55.37 1294.74,-42.35 1294.74,-42.35 1294.74,-36.35 1300.74,-30.35 1306.74,-30.35 1306.74,-30.35 1390.02,-30.35 1390.02,-30.35 1396.02,-30.35 1402.02,-36.35 1402.02,-42.35 1402.02,-42.35 1402.02,-55.37 1402.02,-55.37 1402.02,-61.37 1396.02,-67.37 1390.02,-67.37"/>
<text text-anchor="middle" x="1348.38" y="-50.21" font-family="Helvetica,sans-Serif" font-size="12.00">Secondary&#45;effect</text>
<text text-anchor="middle" x="1348.38" y="-37.46" font-family="Helvetica,sans-Serif" font-size="12.00">attribution</text>
</g>
<!-- path&#45;&gt;sec -->
<g id="edge15" class="edge">
<title>path&#45;&gt;sec</title>
<path fill="none" stroke="#94a3b8" stroke-dasharray="5,2" d="M653.26,-244.63C721.71,-243.46 832.01,-241.86 927.29,-241.86 927.29,-241.86 927.29,-241.86 1084.82,-241.86 1195.94,-241.86 1291.11,-128.25 1329.39,-75.36"/>
<polygon fill="#94a3b8" stroke="#94a3b8" points="1331.59,-77.1 1333.95,-68.95 1327.03,-73.85 1331.59,-77.1"/>
</g>
<!-- exp -->
<g id="node10" class="node">
<title>exp</title>
<path fill="#f1f5f9" stroke="#94a3b8" stroke-dasharray="5,2" d="M966.18,-70.37C966.18,-70.37 890.4,-70.37 890.4,-70.37 884.4,-70.37 878.4,-64.37 878.4,-58.37 878.4,-58.37 878.4,-45.35 878.4,-45.35 878.4,-39.35 884.4,-33.35 890.4,-33.35 890.4,-33.35 966.18,-33.35 966.18,-33.35 972.18,-33.35 978.18,-39.35 978.18,-45.35 978.18,-45.35 978.18,-58.37 978.18,-58.37 978.18,-64.37 972.18,-70.37 966.18,-70.37"/>
<text text-anchor="middle" x="928.29" y="-53.21" font-family="Helvetica,sans-Serif" font-size="12.00">Expected direct</text>
<text text-anchor="middle" x="928.29" y="-40.46" font-family="Helvetica,sans-Serif" font-size="12.00">effect</text>
</g>
<!-- cal&#45;&gt;exp -->
<g id="edge12" class="edge">
<title>cal&#45;&gt;exp</title>
<path fill="none" stroke="#94a3b8" stroke-dasharray="5,2" d="M814.84,-51.86C831.84,-51.86 851.14,-51.86 868.89,-51.86"/>
<polygon fill="#94a3b8" stroke="#94a3b8" points="868.5,-54.66 876.5,-51.86 868.5,-49.06 868.5,-54.66"/>
</g>
<!-- exp&#45;&gt;comp -->
<g id="edge13" class="edge">
<title>exp&#45;&gt;comp</title>
<path fill="none" stroke="#94a3b8" stroke-dasharray="5,2" d="M978.29,-50.91C987.9,-50.72 998.18,-50.52 1008.4,-50.32"/>
<polygon fill="#94a3b8" stroke="#94a3b8" points="1008.3,-53.12 1016.24,-50.17 1008.19,-47.52 1008.3,-53.12"/>
</g>
<!-- res -->
<g id="node12" class="node">
<title>res</title>
<path fill="#f1f5f9" stroke="#94a3b8" stroke-dasharray="5,2" d="M1242.74,-66.86C1242.74,-66.86 1201.46,-66.86 1201.46,-66.86 1195.46,-66.86 1189.46,-60.86 1189.46,-54.86 1189.46,-54.86 1189.46,-42.86 1189.46,-42.86 1189.46,-36.86 1195.46,-30.86 1201.46,-30.86 1201.46,-30.86 1242.74,-30.86 1242.74,-30.86 1248.74,-30.86 1254.74,-36.86 1254.74,-42.86 1254.74,-42.86 1254.74,-54.86 1254.74,-54.86 1254.74,-60.86 1248.74,-66.86 1242.74,-66.86"/>
<text text-anchor="middle" x="1222.1" y="-43.84" font-family="Helvetica,sans-Serif" font-size="12.00">Residual</text>
</g>
<!-- comp&#45;&gt;res -->
<g id="edge14" class="edge">
<title>comp&#45;&gt;res</title>
<path fill="none" stroke="#94a3b8" stroke-dasharray="5,2" d="M1149.77,-48.86C1160.05,-48.86 1170.43,-48.86 1179.97,-48.86"/>
<polygon fill="#94a3b8" stroke="#94a3b8" points="1179.68,-51.66 1187.68,-48.86 1179.68,-46.06 1179.68,-51.66"/>
</g>
<!-- res&#45;&gt;sec -->
<g id="edge16" class="edge">
<title>res&#45;&gt;sec</title>
<path fill="none" stroke="#94a3b8" stroke-dasharray="5,2" d="M1255.11,-48.86C1264.25,-48.86 1274.53,-48.86 1284.84,-48.86"/>
<polygon fill="#94a3b8" stroke="#94a3b8" points="1284.76,-51.66 1292.76,-48.86 1284.76,-46.06 1284.76,-51.66"/>
</g>
<!-- cls -->
<g id="node14" class="node">
<title>cls</title>
<path fill="#f1f5f9" stroke="#94a3b8" stroke-dasharray="5,2" d="M1549.3,-70.75C1549.3,-70.75 1454.02,-70.75 1454.02,-70.75 1448.02,-70.75 1442.02,-64.75 1442.02,-58.75 1442.02,-58.75 1442.02,-32.98 1442.02,-32.98 1442.02,-26.98 1448.02,-20.98 1454.02,-20.98 1454.02,-20.98 1549.3,-20.98 1549.3,-20.98 1555.3,-20.98 1561.3,-26.98 1561.3,-32.98 1561.3,-32.98 1561.3,-58.75 1561.3,-58.75 1561.3,-64.75 1555.3,-70.75 1549.3,-70.75"/>
<text text-anchor="middle" x="1501.66" y="-53.59" font-family="Helvetica,sans-Serif" font-size="12.00">Direct / secondary /</text>
<text text-anchor="middle" x="1501.66" y="-40.84" font-family="Helvetica,sans-Serif" font-size="12.00">mixed / unresolved</text>
<text text-anchor="middle" x="1501.66" y="-28.09" font-family="Helvetica,sans-Serif" font-size="12.00">classification</text>
</g>
<!-- sec&#45;&gt;cls -->
<g id="edge17" class="edge">
<title>sec&#45;&gt;cls</title>
<path fill="none" stroke="#94a3b8" stroke-dasharray="5,2" d="M1402.29,-47.82C1411.91,-47.62 1422.07,-47.42 1432.07,-47.22"/>
<polygon fill="#94a3b8" stroke="#94a3b8" points="1432.12,-50.02 1440.07,-47.07 1432.01,-44.43 1432.12,-50.02"/>
</g>
</g>
</svg>
